<svg width="31" height="29" viewBox="0 0 31 29" fill="none" xmlns="http://www.w3.org/2000/svg">
<path d="M29.7083 23.5417C29.7083 24.2268 29.4362 24.8839 28.9517 25.3684C28.4672 25.8528 27.8101 26.125 27.125 26.125H3.87501C3.18986 26.125 2.53278 25.8528 2.04831 25.3684C1.56384 24.8839 1.29167 24.2268 1.29167 23.5417V9.33333C1.29167 8.64819 1.56384 7.99111 2.04831 7.50664C2.53278 7.02217 3.18986 6.75 3.87501 6.75H9.04167L11.625 2.875H19.375L21.9583 6.75H27.125C27.8101 6.75 28.4672 7.02217 28.9517 7.50664C29.4362 7.99111 29.7083 8.64819 29.7083 9.33333V23.5417Z" stroke="#EF983F" stroke-width="4" stroke-linecap="round" stroke-linejoin="round"/>
<path d="M15.5 20.9583C18.3535 20.9583 20.6667 18.6451 20.6667 15.7917C20.6667 12.9382 18.3535 10.625 15.5 10.625C12.6465 10.625 10.3333 12.9382 10.3333 15.7917C10.3333 18.6451 12.6465 20.9583 15.5 20.9583Z" stroke="#EF983F" stroke-width="4" stroke-linecap="round" stroke-linejoin="round"/>
</svg>
