<svg width="31" height="31" viewBox="0 0 31 31" fill="none" xmlns="http://www.w3.org/2000/svg">
<path d="M15.5 15.5C14.0792 15.5 12.8628 14.9941 11.851 13.9823C10.8392 12.9705 10.3333 11.7542 10.3333 10.3333C10.3333 8.91249 10.8392 7.69617 11.851 6.68437C12.8628 5.67256 14.0792 5.16666 15.5 5.16666C16.9208 5.16666 18.1372 5.67256 19.149 6.68437C20.1608 7.69617 20.6667 8.91249 20.6667 10.3333C20.6667 11.7542 20.1608 12.9705 19.149 13.9823C18.1372 14.9941 16.9208 15.5 15.5 15.5ZM5.16667 25.8333V22.2167C5.16667 21.4847 5.35503 20.812 5.73177 20.1984C6.10851 19.5849 6.60903 19.1167 7.23333 18.7937C8.56806 18.1264 9.9243 17.6259 11.3021 17.2922C12.6799 16.9585 14.0792 16.7917 15.5 16.7917C16.9208 16.7917 18.3201 16.9585 19.6979 17.2922C21.0757 17.6259 22.4319 18.1264 23.7667 18.7937C24.391 19.1167 24.8915 19.5849 25.2682 20.1984C25.645 20.812 25.8333 21.4847 25.8333 22.2167V25.8333H5.16667ZM7.75 23.25H23.25V22.2167C23.25 21.9799 23.1908 21.7646 23.0724 21.5708C22.954 21.3771 22.7979 21.2264 22.6042 21.1187C21.4417 20.5375 20.2684 20.1016 19.0844 19.8109C17.9003 19.5203 16.7056 19.375 15.5 19.375C14.2944 19.375 13.0997 19.5203 11.9156 19.8109C10.7316 20.1016 9.55833 20.5375 8.39583 21.1187C8.20208 21.2264 8.04601 21.3771 7.9276 21.5708C7.8092 21.7646 7.75 21.9799 7.75 22.2167V23.25ZM15.5 12.9167C16.2104 12.9167 16.8186 12.6637 17.3245 12.1578C17.8304 11.6519 18.0833 11.0437 18.0833 10.3333C18.0833 9.62291 17.8304 9.01475 17.3245 8.50884C16.8186 8.00294 16.2104 7.74999 15.5 7.74999C14.7896 7.74999 14.1814 8.00294 13.6755 8.50884C13.1696 9.01475 12.9167 9.62291 12.9167 10.3333C12.9167 11.0437 13.1696 11.6519 13.6755 12.1578C14.1814 12.6637 14.7896 12.9167 15.5 12.9167Z" fill="#EF983F"/>
</svg>
