<svg width="31" height="31" viewBox="0 0 31 31" fill="none" xmlns="http://www.w3.org/2000/svg">
<g clip-path="url(#clip0_291_466)">
<path d="M28.4167 21.855V25.73C28.4181 26.0897 28.3444 26.4458 28.2003 26.7754C28.0562 27.105 27.8448 27.4009 27.5798 27.6441C27.3147 27.8873 27.0017 28.0724 26.661 28.1877C26.3202 28.3029 25.9591 28.3457 25.6008 28.3133C21.6262 27.8815 17.8082 26.5233 14.4537 24.3479C11.3329 22.3648 8.68689 19.7188 6.70375 16.5979C4.5208 13.2282 3.16231 9.39171 2.73833 5.39918C2.70605 5.04199 2.7485 4.682 2.86297 4.34211C2.97745 4.00223 3.16144 3.6899 3.40323 3.42502C3.64503 3.16014 3.93933 2.94851 4.26739 2.8036C4.59546 2.6587 4.9501 2.58368 5.30875 2.58335H9.18375C9.8106 2.57718 10.4183 2.79916 10.8936 3.20791C11.3689 3.61666 11.6793 4.1843 11.7671 4.80501C11.9306 6.0451 12.234 7.2627 12.6712 8.4346C12.845 8.89692 12.8826 9.39936 12.7796 9.8824C12.6766 10.3654 12.4373 10.8088 12.09 11.16L10.4496 12.8004C12.2883 16.0342 14.9658 18.7117 18.1996 20.5504L19.84 18.91C20.1912 18.5627 20.6346 18.3234 21.1176 18.2204C21.6006 18.1174 22.1031 18.155 22.5654 18.3288C23.7373 18.7661 24.9549 19.0694 26.195 19.2329C26.8224 19.3214 27.3955 19.6375 27.8051 20.1209C28.2147 20.6044 28.4324 21.2215 28.4167 21.855Z" stroke="#EF983F" stroke-width="4" stroke-linecap="round" stroke-linejoin="round"/>
</g>
<defs>
<clipPath id="clip0_291_466">
<rect width="31" height="31" fill="white"/>
</clipPath>
</defs>
</svg>
